<svg xmlns="http://www.w3.org/2000/svg" viewBox="0 0 428.48 244.83"><defs><style>.a{fill:#000dff;}.b{fill:#ff3566;}</style></defs><title>logo_1</title><path class="a" d="M30.6,244.82h0A30.69,30.69,0,0,1,0,214.22V30.6a30.61,30.61,0,0,1,61.21,0V214.22a30.69,30.69,0,0,1-30.61,30.6"/><path class="a" d="M153,214.22a30.61,30.61,0,1,0-30.61,30.61A30.6,30.6,0,0,0,153,214.22"/><path class="b" d="M336.62,122.43A30.6,30.6,0,1,0,306,153a30.61,30.61,0,0,0,30.6-30.6"/><path class="b" d="M214.16,244.82h0a30.69,30.69,0,0,1-30.6-30.6V30.6a30.61,30.61,0,0,1,61.21,0V214.22a30.69,30.69,0,0,1-30.61,30.6"/><path class="b" d="M397.88,244.82h0a30.69,30.69,0,0,1-30.61-30.6V30.6a30.61,30.61,0,0,1,61.21,0V214.22a30.69,30.69,0,0,1-30.6,30.6"/></svg>