<?xml version="1.0" encoding="utf-8"?>
<!-- Generator: Adobe Illustrator 23.0.2, SVG Export Plug-In . SVG Version: 6.00 Build 0)  -->
<svg version="1.1" id="Layer_1" xmlns="http://www.w3.org/2000/svg" xmlns:xlink="http://www.w3.org/1999/xlink" x="0px" y="0px"
	 viewBox="0 0 428.5 244.8" style="enable-background:new 0 0 428.5 244.8;" xml:space="preserve">
<style type="text/css">
	.st0{fill:#000DFF;}
	.st1{fill:#9836FF;}
</style>
<title>logo_1</title>
<path class="st0" d="M30.6,244.8L30.6,244.8C13.7,244.8,0,231.1,0,214.2V30.6C0.3,13.7,14.3,0.2,31.2,0.5
	c16.5,0.3,29.8,13.6,30.1,30.1v183.6C61.2,231.1,47.5,244.8,30.6,244.8"/>
<path class="st0" d="M153,214.2c0-16.9-13.7-30.6-30.6-30.6s-30.6,13.7-30.6,30.6s13.7,30.6,30.6,30.6
	C139.3,244.8,153,231.1,153,214.2C153,214.2,153,214.2,153,214.2"/>
<path class="st1" d="M336.6,122.4c0-16.9-13.7-30.6-30.6-30.6c-16.9,0-30.6,13.7-30.6,30.6c0,16.9,13.7,30.6,30.6,30.6c0,0,0,0,0,0
	C322.9,153,336.6,139.3,336.6,122.4"/>
<path class="st1" d="M214.2,244.8L214.2,244.8c-16.9,0-30.6-13.7-30.6-30.6V30.6c0.3-16.9,14.3-30.4,31.2-30.1
	c16.5,0.3,29.8,13.6,30.1,30.1v183.6C244.7,231.1,231,244.8,214.2,244.8"/>
<path class="st1" d="M397.9,244.8L397.9,244.8c-16.9,0-30.6-13.7-30.6-30.6V30.6c0.3-16.9,14.3-30.4,31.2-30.1
	c16.5,0.3,29.8,13.6,30.1,30.1v183.6C428.4,231.1,414.8,244.8,397.9,244.8"/>
</svg>
